<svg width="512" height="512" viewBox="0 0 512 512" fill="none" xmlns="http://www.w3.org/2000/svg">
<path d="M61.2829 422.408C-20.4276 325.031 -20.4276 186.835 61.2829 89.4575C98.9868 44.4254 156.936 12.1371 216.896 2.70938C239.856 -0.903125 271.842 -0.903125 295.098 2.70938C354.657 11.9369 413.015 44.4254 450.711 89.4575C532.43 186.835 532.43 325.031 450.711 422.408C411.205 469.547 349.948 502.436 287.578 510.062C272.138 511.968 256.698 512.465 240.961 511.567C172.881 507.955 104.497 474.057 61.2829 422.408ZM489.512 312.191C494.926 290.636 496.135 280.608 496.135 255.937C496.135 238.884 495.631 230.665 494.229 222.335C490.217 197.969 483.001 174.499 472.975 153.641C441.686 88.3521 382.231 39.8196 312.245 22.3659C290.694 16.9511 280.667 15.7496 256.001 15.7496C231.335 15.7496 221.308 16.9511 199.749 22.3659C112.922 43.9287 44.0406 112.823 22.4818 199.675C17.0681 221.238 15.8668 231.266 15.8668 255.937C15.8668 280.608 17.0681 290.636 22.4818 312.191C44.0406 399.043 112.817 467.841 199.749 489.5C209.68 492.007 216.695 493.313 236.444 496.02C244.469 497.125 281.068 495.716 292.095 493.817C389.15 477.165 466.055 406.364 489.512 312.191Z" fill="white"/>
<path d="M172.776 476.562C143.097 465.933 112.817 446.477 89.1599 422.807C54.363 388.012 31.8031 343.781 23.6825 294.543C21.0798 278.7 21.0798 233.171 23.6825 217.319C31.8031 168.082 54.363 123.851 89.1599 89.0553C123.949 54.2519 168.164 31.6878 217.4 23.5657C233.24 20.9625 278.761 20.9625 294.601 23.5657C343.829 31.6878 388.044 54.2519 422.841 89.0553C457.63 123.851 480.19 168.082 488.31 217.319C489.712 226.05 490.12 234.068 490.12 255.935C490.12 277.794 489.712 285.82 488.31 294.543C480.19 343.781 457.63 388.012 422.841 422.807C388.749 456.906 345.84 479.173 297.605 487.792C288.987 489.298 280.867 489.803 260.013 490.099C245.373 490.299 232.135 490.203 230.429 490.003C203.857 486.19 191.732 483.379 172.776 476.562ZM276.054 309.586L239.151 272.676L202.36 235.878L192.83 245.402L183.308 254.926C198.828 270.457 207.453 279.076 209.175 280.806C231.43 303.066 234.946 306.975 234.946 309.586C234.946 312.093 232.84 314.696 221.604 325.934C209.071 338.47 208.174 339.167 204.362 339.167C200.454 339.167 199.653 338.47 161.044 299.854C126.656 265.459 121.642 260.044 121.642 257.433C121.642 254.83 126.76 249.311 161.452 214.612C198.644 177.405 201.551 174.698 204.866 174.698C207.573 174.698 209.175 175.603 212.386 178.711C212.659 178.975 214.028 180.313 216.495 182.724L225.921 173.192L235.443 163.668L220.106 148.321L204.866 133.078L143.001 195.059L81.0393 256.936C118.03 293.943 138.588 314.496 142.697 318.613C176.588 352.512 204.562 380.29 204.866 380.29C205.163 380.29 221.308 364.342 240.76 344.886C245.461 340.176 257.226 328.41 276.054 309.586ZM430.962 254.926L369.096 193.049L307.135 131.076L271.537 166.68L235.947 202.276L272.746 239.082L309.641 275.992L319.163 266.46L328.693 256.936C313.173 241.413 304.548 232.786 302.826 231.064C280.667 208.901 277.055 204.888 277.055 202.276C277.055 199.769 279.257 197.062 290.789 185.528C302.418 173.897 305.028 171.694 307.631 171.694C310.242 171.694 315.656 176.709 349.948 211.007C388.645 249.711 389.35 250.52 389.35 254.429C389.35 258.338 388.645 259.139 350.044 297.755C312.949 334.858 310.442 337.164 307.135 337.164C304.228 337.164 302.722 336.363 299.615 333.055C299.342 332.783 298.013 331.445 295.602 329.042L286.377 338.871L277.151 348.699C286 357.606 290.909 362.548 291.894 363.541C300.015 371.663 306.83 378.28 307.135 378.28C307.431 378.28 335.405 350.501 369.296 316.603C377.521 308.385 398.071 287.823 430.962 254.926Z" fill="white"/>
<path d="M150.721 475.961C78.0282 441.062 28.1994 373.97 14.6651 292.533C12.0543 276.793 12.0543 235.069 14.6651 219.33C21.5764 178.006 37.0168 141.408 61.0822 109.513C99.6831 58.2649 154.629 25.3759 219.402 14.5384C235.147 11.9351 276.855 11.9351 292.591 14.5384C333.907 21.459 370.498 36.9022 402.388 60.9722C453.618 99.5883 486.509 154.545 497.336 219.33C499.939 235.069 499.939 276.793 497.336 292.533C479.685 398.937 400.778 478.572 295.098 496.819C286.377 498.325 277.76 498.926 260.013 499.126C247.071 499.326 235.147 499.23 233.441 499.03C196.746 493.912 176.388 488.297 150.721 475.961ZM419.83 419.803C454.627 385 477.179 340.777 485.307 291.531C487.91 275.888 487.91 235.974 485.307 220.331C477.179 171.093 454.627 126.862 419.83 92.067C385.041 57.2636 340.826 34.6995 291.59 26.5774C275.95 23.9661 236.043 23.9661 220.403 26.5774C171.175 34.6995 126.96 57.2636 92.1631 92.067C57.3743 126.862 34.8144 171.093 26.6938 220.331C24.0831 235.974 24.0831 275.888 26.6938 291.531C34.8144 340.777 57.3743 385 92.1631 419.803C121.746 449.384 156.936 469.545 197.947 480.375C207.774 482.978 213.788 484.188 233.441 486.991C235.147 487.191 247.071 487.295 260.013 487.095C277.655 486.791 286.377 486.19 294.601 484.788C342.724 476.266 385.738 453.902 419.83 419.803Z" fill="black"/>
<path d="M75.0186 256.938L139.991 192.049L204.868 127.064L223.111 145.319L241.459 163.67L228.925 176.206L216.392 188.741L210.682 183.022L204.868 177.207L164.762 217.321L124.655 257.435C148.232 281.024 161.334 294.129 163.961 296.748C185.616 318.415 203.763 336.165 204.363 336.165C204.868 336.165 211.283 330.15 218.603 322.925C219.492 322.035 223.936 317.59 231.937 309.588L204.668 282.306L177.295 254.928L189.828 242.392L202.361 229.857L242.163 269.674L282.07 309.588C259.085 332.577 246.32 345.344 243.765 347.9C222.615 369.054 205.164 386.307 204.868 386.307C204.564 386.307 175.285 357.223 139.695 321.619C131.07 313 109.511 291.437 75.0186 256.938Z" fill="black"/>
<path d="M271.138 348.795L283.271 335.963L295.508 323.027L301.322 328.842L307.136 334.658C330.897 310.892 344.103 297.684 346.738 295.048C368.497 273.285 386.348 255.03 386.348 254.43C386.348 253.925 368.601 235.678 347.043 214.116C344.416 211.488 331.282 198.352 307.633 174.698L293.898 188.444L280.068 202.277L307.337 229.559L334.709 256.937L322.176 269.472L309.643 282.008L269.737 242.094L229.935 202.277L268.535 163.669L307.136 125.061L372.109 190.046L436.978 254.926C398.177 293.743 376.618 315.306 372.309 319.615C336.712 355.219 307.433 384.304 307.136 384.304C306.832 384.304 298.615 376.278 288.885 366.545C286.522 364.182 280.604 358.263 271.138 348.795Z" fill="black"/>
</svg>
