<svg width="512" height="512" viewBox="0 0 512 512" fill="none" xmlns="http://www.w3.org/2000/svg">
<path d="M512 256C512 397.385 397.385 512 256 512C114.615 512 0 397.385 0 256C0 114.615 114.615 0 256 0C397.385 0 512 114.615 512 256Z" fill="black"/>
<path d="M496 256C496 388.548 388.548 496 256 496C123.452 496 16 388.548 16 256C16 123.452 123.452 16 256 16C388.548 16 496 123.452 496 256Z" fill="white"/>
<path d="M480 256C480 379.712 379.712 480 256 480C132.288 480 32 379.712 32 256C32 132.288 132.288 32 256 32C379.712 32 480 132.288 480 256Z" fill="black"/>
<path d="M104 257.075L158.569 201.437L213.057 145.717L243.789 177.104L222.736 198.601L213.057 188.711L145.688 257.501C165.49 277.727 176.494 288.963 178.7 291.209C196.888 309.787 212.129 325.006 212.633 325.006C213.057 325.006 218.445 319.848 224.592 313.653C225.339 312.891 229.072 309.079 235.791 302.218L189.899 255.351L210.952 233.854L277.897 302.218C258.593 321.929 247.871 332.877 245.726 335.068C227.962 353.206 213.306 368 213.057 368C212.802 368 188.211 343.062 158.32 312.534C151.076 305.144 132.969 286.655 104 257.075Z" fill="white"/>
<path d="M104 257.075L158.569 201.437L213.057 145.717L243.789 177.104L222.736 198.601L213.057 188.711L145.688 257.501C165.49 277.727 176.494 288.963 178.7 291.209C196.888 309.787 212.129 325.006 212.633 325.006C213.057 325.006 218.445 319.848 224.592 313.653C225.339 312.891 229.072 309.079 235.791 302.218L189.899 255.351L210.952 233.854L277.897 302.218C258.593 321.929 247.871 332.877 245.726 335.068C227.962 353.206 213.306 368 213.057 368C212.802 368 188.211 343.062 158.32 312.534C151.076 305.144 132.969 286.655 104 257.075Z" fill="white"/>
<path d="M268.716 335.837L289.183 313.743L298.949 323.715C318.906 303.338 329.997 292.012 332.21 289.753C350.485 271.092 365.477 255.44 365.477 254.925C365.477 254.492 350.572 238.847 332.466 220.358C330.259 218.106 319.229 206.842 299.366 186.561L276.215 210.208L322.107 257.075L301.055 278.572L234.11 210.208L298.949 144L408 255.351C375.412 288.633 357.305 307.122 353.686 310.817C323.789 341.345 299.198 366.283 298.949 366.283C298.694 366.283 291.793 359.401 283.621 351.057C281.636 349.031 276.666 343.955 268.716 335.837Z" fill="white"/>
<path d="M268.716 335.837L289.183 313.743L298.949 323.715C318.906 303.338 329.997 292.012 332.21 289.753C350.485 271.092 365.477 255.44 365.477 254.925C365.477 254.492 350.572 238.847 332.466 220.358C330.259 218.106 319.229 206.842 299.366 186.561L276.215 210.208L322.107 257.075L301.055 278.572L234.11 210.208L298.949 144L408 255.351C375.412 288.633 357.305 307.122 353.686 310.817C323.789 341.345 299.198 366.283 298.949 366.283C298.694 366.283 291.793 359.401 283.621 351.057C281.636 349.031 276.666 343.955 268.716 335.837Z" fill="white"/>
</svg>
